<svg width="343" height="372" viewBox="0 0 343 372" fill="none" xmlns="http://www.w3.org/2000/svg">
<path d="M328.216 248.934C328.216 338.5 299.716 363.434 172.716 363.434C32.2156 363.434 12.4041 330.369 13.7156 248.934C15.0271 167.5 83.0271 132.044 172.716 134.434C262.404 136.824 328.216 159.368 328.216 248.934Z" stroke="#C51717" stroke-width="16"/>
<line x1="196.979" y1="212.751" x2="217.979" y2="185.751" stroke="#A10505" stroke-width="12"/>
<line x1="105.12" y1="191.386" x2="132.479" y2="209.839" stroke="#A10505" stroke-width="12"/>
<line x1="105.741" y1="239.386" x2="130.905" y2="202.079" stroke="#A10505" stroke-width="12"/>
<line x1="231.951" y1="233.107" x2="195.951" y2="204.107" stroke="#A10505" stroke-width="12"/>
<path d="M159.715 297.905C159.715 297.905 208.715 315.86 245.715 297.905C282.715 279.95 272.715 253.434 272.715 253.434" stroke="#C51717" stroke-width="12"/>
<path d="M175.341 133.467C175.341 133.467 212.261 161.948 233.527 165C243.172 166.384 258.527 172 274.527 152C320.527 152 337.027 124 337.027 124" stroke="#C51717" stroke-width="12"/>
<path d="M91.717 142.934C91.717 142.934 72.2155 142.934 48.2156 121.435C24.2157 99.9356 14.2269 78.5 14.2269 78.5" stroke="#C51717" stroke-width="12"/>
<path d="M152.216 132.435C152.216 132.435 88.7156 123.934 55.2155 103.435C21.7155 82.9351 12.0257 76 12.0257 76" stroke="#C51717" stroke-width="12"/>
<path d="M178.715 133.934C178.715 133.934 167.215 121.934 182.215 76.9342C197.215 31.9343 252.715 27.9344 252.715 27.9344" stroke="#C51717" stroke-width="16"/>
</svg>
